# Blender v2.82 (sub 7) OBJ File: ''
# www.blender.org
mtllib laser.mtl
o Laser_Cube
v 0.250000 0.250000 -1.000000
v 0.250000 -0.250000 -1.000000
v 0.250000 0.250000 1.000000
v 0.250000 -0.250000 1.000000
v -0.250000 0.250000 -1.000000
v -0.250000 -0.250000 -1.000000
v -0.250000 0.250000 1.000000
v -0.250000 -0.250000 1.000000
v -0.500000 -0.500000 0.539326
v 0.500000 0.500000 0.539326
v -0.500000 0.500000 0.539326
v 0.500000 -0.500000 0.539326
v -0.500000 0.500000 -0.570765
v 0.500000 -0.500000 -0.570765
v -0.500000 -0.500000 -0.570765
v 0.500000 0.500000 -0.570765
vt 0.625000 0.692416
vt 0.875000 0.692416
vt 0.875000 0.750000
vt 0.625000 0.750000
vt 0.375000 0.750000
vt 0.625000 1.000000
vt 0.375000 1.000000
vt 0.375000 0.196346
vt 0.625000 0.196346
vt 0.625000 0.250000
vt 0.375000 0.250000
vt 0.125000 0.692416
vt 0.375000 0.692416
vt 0.125000 0.750000
vt 0.625000 0.500000
vt 0.375000 0.500000
vt 0.375000 0.553654
vt 0.625000 0.553654
vt 0.125000 0.553654
vt 0.375000 0.000000
vt 0.625000 0.000000
vt 0.625000 0.057584
vt 0.375000 0.057584
vt 0.875000 0.553654
vt 0.875000 0.500000
vt 0.125000 0.500000
vn 0.0000 0.8789 0.4770
vn 0.0000 0.0000 1.0000
vn -0.8641 0.0000 -0.5033
vn 0.0000 -0.8789 0.4770
vn 0.8789 0.0000 0.4770
vn 0.0000 0.0000 -1.0000
vn 1.0000 0.0000 0.0000
vn 0.0000 -1.0000 0.0000
vn -0.8789 0.0000 0.4770
vn 0.0000 1.0000 0.0000
vn 0.0000 0.8641 -0.5033
vn 0.0000 -0.8641 -0.5033
vn 0.8641 0.0000 -0.5033
vn -1.0000 0.0000 0.0000
usemtl Material
s off
f 10/1/1 11/2/1 7/3/1 3/4/1
f 4/5/2 3/4/2 7/6/2 8/7/2
f 15/8/3 13/9/3 5/10/3 6/11/3
f 9/12/4 12/13/4 4/5/4 8/14/4
f 12/13/5 10/1/5 3/4/5 4/5/5
f 6/11/6 5/10/6 1/15/6 2/16/6
f 14/17/7 16/18/7 10/1/7 12/13/7
f 15/19/8 14/17/8 12/13/8 9/12/8
f 8/20/9 7/21/9 11/22/9 9/23/9
f 16/18/10 13/24/10 11/2/10 10/1/10
f 1/15/11 5/25/11 13/24/11 16/18/11
f 6/26/12 2/16/12 14/17/12 15/19/12
f 2/16/13 1/15/13 16/18/13 14/17/13
f 9/23/14 11/22/14 13/9/14 15/8/14
