# Blender v2.82 (sub 7) OBJ File: ''
# www.blender.org
mtllib rock1.mtl
o Cube
v 0.458904 1.000000 -0.753492
v 0.993915 -0.986202 -0.998436
v 0.406494 0.333333 1.086622
v 0.794084 -1.000000 1.649984
v -0.711546 0.166667 -1.000000
v -0.795002 -1.000000 -1.000000
v -0.772728 0.416667 0.666667
v -0.754643 -1.000000 1.000000
v 0.411870 0.362814 -0.983826
v 0.492165 -0.171543 -0.941331
v -0.739462 -0.333333 1.000000
v -1.272513 -1.000000 -0.333333
v -1.287314 -1.000000 0.333333
v 0.413972 1.732694 -0.332989
v 0.413566 1.732694 0.333333
v -0.708321 0.666667 -0.333333
v 1.047616 -1.000000 0.559791
v 1.026531 -1.000000 -0.339755
v 0.641814 -0.311207 -0.454957
v 0.906351 -0.333333 0.841617
v 0.504050 0.337116 -0.343506
v 0.777402 0.333333 0.353183
v -1.066765 -0.333333 -0.333333
vt 0.625000 0.666667
vt 0.875000 0.750000
vt 0.625000 0.750000
vt 0.375000 0.666667
vt 0.125000 0.750000
vt 0.125000 0.666667
vt 0.541667 0.666667
vt 0.541667 0.750000
vt 0.625000 0.250000
vt 0.625000 0.500000
vt 0.541667 0.500000
vt 0.375000 0.250000
vt 0.458333 0.500000
vt 0.375000 0.500000
vt 0.541667 0.250000
vt 0.458333 0.666667
vt 0.375000 0.750000
vt 0.458333 0.750000
vt 0.458333 0.166667
vt 0.375000 0.166667
vt 0.541667 0.166667
vt 0.458333 0.250000
vt 0.458333 1.000000
vt 0.375000 1.000000
vt 0.541667 0.083333
vt 0.458333 0.000000
vt 0.375000 0.083333
vt 0.375000 0.000000
vt 0.541667 0.583333
vt 0.458333 0.583333
vt 0.375000 0.583333
vt 0.125000 0.500000
vt 0.125000 0.583333
vt 0.875000 0.583333
vt 0.625000 0.583333
vt 0.541667 1.000000
vt 0.458333 0.083333
vt 0.875000 0.500000
vt 0.875000 0.666667
vn -0.2694 0.4575 0.8474
vn 0.0000 -1.0000 0.0000
vn 0.8680 0.2319 0.4390
vn -0.0463 0.3426 -0.9383
vn 0.0003 0.0701 -0.9975
vn 0.0275 -0.0751 -0.9968
vn 0.9681 0.1100 0.2251
vn 0.7844 0.4206 0.4558
vn -0.7885 0.2434 -0.5648
vn -0.9136 0.3275 -0.2412
vn -0.3870 0.0088 0.9220
vn -0.2517 0.3137 0.9156
vn -0.9411 0.3373 0.0237
vn -0.7811 0.0178 0.6241
vn -0.9553 0.2948 -0.0212
vn 0.9452 0.2391 -0.2222
vn 0.9790 0.0436 -0.1990
vn 0.8749 0.4831 -0.0332
vn 0.8743 0.4849 -0.0205
vn 0.9895 -0.0212 -0.1433
vn 0.9062 0.2306 -0.3543
vn -0.4123 0.4343 -0.8008
vn -0.6887 0.7250 -0.0004
vn 0.0477 -0.0034 -0.9989
vn 0.7971 0.4495 0.4031
vn -0.8999 0.0644 -0.4312
vn -0.2867 0.3784 0.8801
vn -0.8425 0.1872 0.5052
vn -0.9415 0.3362 0.0247
vn 0.9813 0.1367 -0.1358
vn 0.9013 0.2521 -0.3523
vn 0.8431 0.5268 -0.1081
vn 0.9419 0.2788 -0.1874
vn 0.9979 0.0645 -0.0057
vn 0.9979 0.0644 0.0006
vn 0.0077 -0.9997 -0.0213
vn -0.4060 0.7320 -0.5471
vn -0.7212 0.6815 0.1239
usemtl Material
s off
f 15/1/1 7/2/1 3/3/1
f 17/4/2 8/5/2 13/6/2
f 22/7/3 15/1/3 3/8/3
f 5/9/4 1/10/4 9/11/4
f 6/12/5 10/13/5 2/14/5
f 5/15/6 9/11/6 10/13/6
f 17/4/7 20/16/7 4/17/7
f 20/16/8 3/8/8 4/18/8
f 23/19/9 6/12/9 12/20/9
f 23/19/10 16/21/10 5/22/10
f 4/18/11 11/23/11 8/24/11
f 3/8/12 11/23/12 4/18/12
f 7/25/13 16/21/13 23/19/13
f 11/26/14 13/27/14 8/28/14
f 13/27/15 23/19/15 12/20/15
f 10/13/16 21/29/16 19/30/16
f 19/30/17 22/7/17 20/16/17
f 2/14/18 19/30/18 18/31/18
f 19/30/19 17/4/19 18/31/19
f 1/10/20 21/29/20 9/11/20
f 21/29/21 15/1/21 22/7/21
f 6/32/2 18/31/2 12/33/2
f 18/31/2 13/6/2 12/33/2
f 1/10/22 16/34/22 14/35/22
f 16/34/23 15/1/23 14/35/23
f 17/4/2 4/17/2 8/5/2
f 6/12/24 5/22/24 10/13/24
f 20/16/25 22/7/25 3/8/25
f 23/19/26 5/22/26 6/12/26
f 3/8/27 7/36/27 11/23/27
f 11/26/28 7/37/28 13/27/28
f 13/27/29 7/37/29 23/19/29
f 10/13/30 9/11/30 21/29/30
f 19/30/31 21/29/31 22/7/31
f 2/14/32 10/13/32 19/30/32
f 19/30/33 20/16/33 17/4/33
f 1/10/34 14/35/34 21/29/34
f 21/29/35 14/35/35 15/1/35
f 6/32/36 2/14/36 18/31/36
f 18/31/2 17/4/2 13/6/2
f 1/10/37 5/38/37 16/34/37
f 16/34/38 7/39/38 15/1/38
