# Blender v2.82 (sub 7) OBJ File: ''
# www.blender.org
mtllib spaceship.mtl
o Player_Spaceship
v -2.464888 0.381860 0.596763
v -2.010942 0.342911 1.017267
v -1.912467 0.344163 0.735785
v -2.616830 0.453671 1.287387
v -1.899713 0.413018 1.149631
v -2.500027 -0.187757 0.581937
v -2.570715 0.374644 1.124798
v -1.659472 0.336470 0.431718
v -1.947607 -0.225454 0.720959
v -1.694611 -0.233147 0.416892
v -1.488557 -0.227025 -0.306686
v -1.951335 0.367220 -0.057962
v -1.453418 0.342592 -0.291860
v -1.434899 0.326604 0.278506
v -1.470038 -0.243013 0.263680
v -1.986475 -0.202396 -0.072788
v -2.046082 -0.226706 1.002441
v -1.482720 -0.629504 0.580219
v -1.787648 -0.895771 -1.419183
v -2.605855 -0.194972 1.109972
v -1.664544 1.099761 -1.367242
v -1.709088 0.377709 -1.386036
v -1.520983 0.584901 -0.636004
v -0.370829 0.959474 0.956295
v -1.091140 0.386763 0.647093
v -0.394209 0.529082 1.037858
v -0.447622 1.025772 -1.408828
v -1.558506 0.092107 -2.921356
v -1.401024 0.694799 0.614689
v -0.570725 -0.969760 -1.460769
v -0.493932 -1.036058 0.904354
v -2.661847 -0.276055 1.268393
v -1.944730 -0.316708 1.130637
v -0.545648 0.279173 -2.948998
v -0.619555 -0.276225 -4.123590
v -2.100561 -0.080574 -2.908596
v -1.599120 -0.566267 -2.938492
v -0.601544 -0.626920 -2.972582
v -1.077887 0.239765 1.286194
v -0.401162 0.330400 1.187883
v -1.138512 -0.381159 0.627105
v -0.463852 -0.629566 1.061371
v -1.109348 -0.270222 1.272920
v -0.937705 0.222560 1.614974
v -0.448569 -0.438075 1.167880
v -0.969166 -0.287427 1.601700
v -0.984423 0.333817 1.787678
v -0.390344 0.321060 1.521084
v -0.437751 -0.447415 1.501082
v -2.869173 0.667637 -0.619354
v -3.933938 0.755683 -0.086482
v -2.801608 0.425328 -0.275212
v -2.258441 0.086697 -1.376357
v -3.167721 0.159989 -1.227247
v -3.047586 0.452078 -1.070890
v -3.974114 0.899766 -0.291118
v -5.032749 1.023156 -0.084125
v -4.864500 1.095217 0.150314
v -4.085966 0.776565 -0.737110
v -4.157402 0.602879 -0.830083
v -5.095238 0.915264 -0.124104
v -4.793104 1.002877 0.257362
v -0.371350 0.483001 1.788782
v -1.029748 -0.400904 1.768554
v -0.439647 -0.624117 1.759966
v 1.182941 0.148722 0.908122
v 1.608604 0.134191 0.457559
v 1.066426 0.163045 0.633987
v 1.814739 0.184231 1.135946
v 1.748448 0.112038 0.977198
v 1.573465 -0.435426 0.442733
v 1.031287 -0.406571 0.619160
v 0.794268 0.187282 0.347866
v 0.759128 -0.382335 0.333040
v 1.053721 0.184512 -0.160654
v 0.506596 -0.348330 -0.374867
v 0.541735 0.221286 -0.360041
v 0.560254 0.205298 0.210326
v 0.525115 -0.364318 0.195499
v 1.018581 -0.385104 -0.175480
v 1.147802 -0.420894 0.893296
v 0.512433 -0.750810 0.512039
v 0.646197 -1.043750 -1.502355
v 0.769301 0.951782 -1.450415
v 0.614561 0.455059 -0.708982
v 0.724758 0.229731 -1.469208
v 0.252173 0.305089 0.601187
v 0.594129 0.573493 0.546508
v 0.436647 -0.029198 -2.989537
v 1.769722 -0.545495 1.116952
v 1.090276 0.231226 1.047453
v 1.045259 -0.498500 1.028460
v 1.713309 -0.457578 0.962372
v 0.953425 -0.266257 -3.012961
v 1.234236 -0.125659 -1.495713
v 0.396033 -0.687573 -3.006673
v 0.264729 0.158134 1.240312
v 0.204800 -0.462832 0.581199
v 0.146184 0.156659 1.577934
v 0.233268 -0.351853 1.227038
v 0.217660 0.260730 1.746599
v 0.114723 -0.353328 1.564660
v 3.062197 0.330316 -0.325562
v 1.960842 0.373971 -0.784411
v 1.888016 0.140198 -0.435471
v 2.080732 0.140276 -1.246141
v 3.105502 0.469324 -0.533052
v 4.182896 0.462843 -0.399053
v 3.171027 0.335338 -0.985105
v 3.214430 0.154671 -1.082003
v 2.153722 -0.163556 -1.409098
v 4.040942 0.553765 -0.154013
v 4.229005 0.348349 -0.442743
v 3.966346 0.470301 -0.041976
v 0.172336 -0.473991 1.727475
vt 0.550954 0.724551
vt 0.557267 0.686516
vt 0.577894 0.690818
vt 0.532134 0.692606
vt 0.544371 0.682458
vt 0.502752 0.760302
vt 0.532877 0.698761
vt 0.614608 0.696067
vt 0.568898 0.642890
vt 0.609780 0.634968
vt 0.662303 0.830013
vt 0.615513 0.752115
vt 0.674496 0.757279
vt 0.644359 0.696216
vt 0.640071 0.634527
vt 0.615872 0.572145
vt 0.527082 0.597715
vt 0.546017 0.654859
vt 0.218103 0.433355
vt 0.195854 0.417374
vt 0.207137 0.360815
vt 0.592717 0.814385
vt 0.487514 0.648528
vt 0.111403 0.435526
vt 0.134438 0.398297
vt 0.159034 0.429847
vt 0.211399 0.477517
vt 0.206992 0.456407
vt 0.218436 0.470223
vt 0.000238 0.661726
vt 0.059130 0.280073
vt 0.674496 0.583156
vt 0.178625 0.432585
vt 0.194969 0.456754
vt 0.205768 0.432253
vt 0.296203 0.349825
vt 0.239355 0.444947
vt 0.477381 0.664126
vt 0.540438 0.662614
vt 0.481363 0.694125
vt 0.845127 0.188616
vt 0.909486 0.119382
vt 0.987446 0.209814
vt 0.120161 0.299300
vt 0.166780 0.269143
vt 0.245029 0.209866
vt 0.066887 0.999762
vt 0.064281 0.920055
vt 0.089357 0.985430
vt 0.219183 0.443796
vt 0.886000 0.572145
vt 0.877488 0.716302
vt 0.872563 0.609900
vt 0.064682 0.872955
vt 0.096267 0.918300
vt 0.254445 0.863218
vt 0.166303 0.850732
vt 0.236921 0.853267
vt 0.000238 0.856233
vt 0.001496 0.939444
vt 0.070073 0.795432
vt 0.095702 0.875709
vt 0.107983 0.918005
vt 0.089626 0.808177
vt 0.118126 0.968650
vt 0.238018 0.822688
vt 0.673968 0.077844
vt 0.560741 0.073651
vt 0.669176 0.037155
vt 0.758410 0.155680
vt 0.674212 0.252610
vt 0.676035 0.158279
vt 0.157348 0.378711
vt 0.178752 0.432262
vt 0.806298 0.119587
vt 0.800411 0.041809
vt 0.796302 0.000238
vt 0.676623 0.128110
vt 0.566112 0.095897
vt 0.488952 0.135246
vt 0.486950 0.114793
vt 0.580382 0.136904
vt 0.582881 0.153983
vt 0.481424 0.146247
vt 0.478267 0.102720
vt 0.561366 0.219152
vt 0.122323 0.053779
vt 0.147459 0.956013
vt 0.114281 0.879071
vt 0.147459 0.837995
vt 0.167400 0.820154
vt 0.254445 0.799083
vt 0.754857 0.715642
vt 0.748545 0.677607
vt 0.775485 0.711340
vt 0.729725 0.709552
vt 0.730468 0.703397
vt 0.700343 0.641856
vt 0.766489 0.759268
vt 0.812199 0.706091
vt 0.807371 0.767189
vt 0.813104 0.650043
vt 0.859894 0.572145
vt 0.872087 0.644880
vt 0.841950 0.705942
vt 0.837662 0.767631
vt 0.813463 0.830013
vt 0.743608 0.747299
vt 0.290205 0.492551
vt 0.259532 0.465547
vt 0.469954 0.421191
vt 0.790308 0.587773
vt 0.724673 0.804443
vt 0.248331 0.617727
vt 0.267804 0.552976
vt 0.312382 0.602042
vt 0.233496 0.481967
vt 0.233820 0.496073
vt 0.400172 0.794957
vt 0.872087 0.819002
vt 0.266172 0.520970
vt 0.263836 0.481096
vt 0.674972 0.738032
vt 0.741962 0.719700
vt 0.738029 0.739544
vt 0.685105 0.753630
vt 0.678954 0.708033
vt 0.987446 0.065925
vt 0.476906 0.749407
vt 0.360519 0.572530
vt 0.369411 0.156466
vt 0.913808 0.210289
vt 0.862619 0.277452
vt 0.826486 0.216614
vt 0.246003 0.466458
vt 0.891167 0.338580
vt 0.883071 0.393274
vt 0.862212 0.353324
vt 0.839526 0.430421
vt 0.806773 0.370652
vt 0.910328 0.454161
vt 0.899850 0.324047
vt 0.910548 0.379659
vt 0.921998 0.438588
vt 0.923874 0.235200
vt 0.891707 0.302827
vt 0.560742 0.498257
vt 0.673968 0.494063
vt 0.669176 0.534752
vt 0.758410 0.416227
vt 0.674212 0.319297
vt 0.806298 0.286191
vt 0.266695 0.520801
vt 0.806298 0.452320
vt 0.800411 0.530098
vt 0.796302 0.571669
vt 0.676623 0.443797
vt 0.566112 0.476010
vt 0.488952 0.436661
vt 0.580383 0.435003
vt 0.582881 0.417924
vt 0.676035 0.413628
vt 0.486950 0.457114
vt 0.481424 0.425660
vt 0.561366 0.352755
vt 0.478267 0.469188
vt 0.476906 0.078655
vt 0.407016 0.000238
vt 0.924842 0.372979
vt 0.960970 0.294092
vt 0.960970 0.403553
vt 0.940475 0.418550
vt 0.940834 0.266929
vt 0.806773 0.000238
vt 0.194723 0.443663
vt 0.234903 0.453093
vt 0.886000 0.755639
vt 0.147934 0.864324
vt 0.118159 0.825212
vt 0.806298 0.285716
vt 0.477381 0.191680
vt 0.152708 0.795432
vt 0.218604 0.470385
vt 0.249745 0.496258
vt 0.235168 0.453033
vt 0.477381 0.380227
vn 0.0616 0.9978 0.0260
vn -0.0347 0.8949 -0.4448
vn -0.9786 0.0654 -0.1952
vn 0.7663 -0.0639 0.6392
vn -0.4226 0.0496 -0.9049
vn 0.5610 -0.0561 0.8259
vn -0.0616 -0.9978 -0.0260
vn 0.9419 -0.0667 0.3292
vn -0.9640 0.2397 0.1151
vn -0.7845 0.0644 -0.6168
vn -0.9720 0.0540 0.2288
vn -0.5092 0.1869 0.8401
vn 0.0325 0.8396 -0.5422
vn -0.9865 -0.1251 0.1056
vn -0.9976 0.0607 0.0341
vn -0.3764 -0.9264 -0.0137
vn 0.0661 0.9793 0.1913
vn 0.1865 -0.0371 0.9818
vn -0.1430 -0.8596 -0.4905
vn -0.9510 0.0665 -0.3021
vn 0.7733 -0.0312 -0.6333
vn -0.1761 0.8922 -0.4160
vn -0.1760 0.8940 -0.4120
vn -0.1764 0.8941 -0.4117
vn -0.6835 -0.6912 -0.2347
vn -0.0667 -0.9734 -0.2194
vn 0.0354 0.6014 0.7981
vn -0.1220 -0.0183 0.9924
vn -0.2468 0.1616 0.9555
vn 0.9976 -0.0607 -0.0341
vn -0.9180 0.0464 0.3938
vn -0.9976 0.0606 0.0346
vn -0.4357 -0.8836 0.1715
vn -0.9515 0.0665 -0.3003
vn -0.2383 -0.9699 0.0508
vn -0.1715 0.9846 0.0332
vn 0.3183 0.8034 0.5032
vn -0.0315 -0.9596 0.2796
vn -0.8063 0.0344 0.5904
vn 0.0554 0.9588 -0.2787
vn 0.0574 0.8216 0.5672
vn -0.1973 0.3419 -0.9188
vn 0.0468 0.9449 -0.3240
vn 0.1132 0.9501 -0.2908
vn -0.1168 0.5056 -0.8548
vn -0.2614 -0.8991 0.3511
vn -0.7907 0.0905 0.6055
vn -0.3938 0.5112 -0.7640
vn -0.1398 -0.9608 0.2394
vn 0.4124 0.7810 0.4690
vn -0.9920 0.0640 -0.1092
vn -0.5711 -0.5523 -0.6073
vn -0.0679 -0.9547 -0.2898
vn -0.2775 0.8362 -0.4730
vn 0.0046 -0.0263 0.9996
vn -0.2887 -0.7397 -0.6079
vn -0.2352 0.8389 -0.4908
vn 0.1124 0.8860 -0.4499
vn 0.9637 -0.0526 -0.2616
vn -0.7232 0.0266 0.6901
vn 0.3630 0.0019 -0.9318
vn -0.5062 0.0088 0.8624
vn -0.9185 0.0464 0.3928
vn 0.9915 0.1208 0.0483
vn 0.7427 -0.0284 -0.6690
vn 0.9847 -0.0650 0.1620
vn 0.3110 -0.2073 0.9275
vn 0.9690 -0.2440 0.0388
vn -0.0553 -0.9886 0.1401
vn -0.1224 -0.0183 0.9923
vn 0.0042 -0.8686 -0.4955
vn 0.9293 -0.0478 -0.3663
vn -0.8127 0.0652 -0.5791
vn 0.2541 0.8660 -0.4307
vn 0.2549 0.8679 -0.4264
vn 0.2544 0.8679 -0.4267
vn 0.8377 -0.5358 -0.1054
vn 0.4354 0.8792 0.1936
vn 0.1861 -0.0370 0.9818
vn 0.3289 0.1266 0.9358
vn 0.9415 -0.0667 0.3303
vn 0.9976 -0.0607 -0.0335
vn 0.3362 -0.9305 0.1451
vn 0.9300 -0.0479 -0.3645
vn 0.9300 -0.0479 -0.3646
vn 0.1221 -0.9918 0.0385
vn 0.2428 0.9659 0.0895
vn -0.1837 0.8339 0.5204
vn -0.0430 -0.9625 0.2678
vn 0.8429 -0.0659 0.5341
vn 0.0422 0.9596 -0.2783
vn 0.0811 0.8201 0.5664
vn 0.1743 0.3193 -0.9315
vn 0.0404 0.9596 -0.2786
vn -0.0482 0.8861 -0.4610
vn 0.1187 0.4913 -0.8629
vn 0.1740 -0.9256 0.3362
vn 0.8786 0.1859 0.4400
vn 0.3885 0.5063 -0.7699
vn 0.0385 -0.9716 0.2334
vn -0.2820 0.8233 0.4927
vn 0.9827 -0.0560 -0.1767
vn 0.4575 -0.6148 -0.6424
vn 0.3439 0.7985 -0.4942
vn 0.0603 -0.0297 0.9977
vn 0.2013 -0.8097 -0.5512
vn 0.3010 0.8063 -0.5091
vn -0.2700 -0.1719 0.9474
vn -0.1759 0.8902 -0.4203
vn -0.2597 0.9650 0.0355
vn -0.9016 -0.4301 -0.0460
vn -0.3117 0.9246 0.2191
vn -0.5878 -0.2533 0.7683
vn 0.0151 -0.4869 0.8733
vn -0.2912 -0.9565 -0.0174
vn -0.1175 0.9878 0.1018
vn -0.0557 -0.9617 0.2683
vn -0.7953 -0.4009 0.4548
vn -0.0472 0.9086 -0.4151
vn -0.1005 0.5014 -0.8594
vn 0.0571 0.9586 -0.2791
vn 0.1236 0.8757 -0.4669
vn -0.2299 -0.9374 0.2617
vn -0.8176 0.2890 0.4979
vn -0.3758 0.5527 -0.7438
vn -0.1391 -0.9354 0.3250
vn 0.3937 0.8095 0.4357
vn -0.3016 0.9316 -0.2029
vn -0.4653 0.8735 -0.1433
vn -0.3349 -0.7771 -0.5329
vn -0.1937 0.8001 -0.5678
vn 0.5840 0.1204 0.8028
vn 0.2533 0.8641 -0.4350
vn 0.2597 -0.9650 -0.0355
vn 0.3764 0.9264 0.0137
vn 0.5773 -0.7679 -0.2778
vn 0.0920 0.5980 0.7962
vn 0.6037 -0.3257 0.7276
vn -0.0145 -0.4851 0.8743
vn 0.1715 -0.9846 -0.0332
vn 0.2912 0.9565 0.0174
vn -0.0659 -0.9575 0.2807
vn 0.7700 -0.4961 0.4013
vn 0.1285 0.8979 -0.4211
vn 0.1018 0.4891 -0.8663
vn 0.0460 0.9449 -0.3240
vn -0.0169 0.9580 -0.2864
vn 0.1320 -0.9594 0.2493
vn 0.8352 -0.0083 0.5499
vn 0.3999 0.4629 -0.7911
vn 0.0466 -0.9467 0.3186
vn -0.2623 0.8493 0.4581
vn 0.5567 0.8114 -0.1782
vn 0.3976 0.8891 -0.2268
vn 0.1550 -0.7667 -0.6230
vn 0.2500 0.7731 -0.5830
usemtl Material.001
s 1
f 1/1/1 2/2/1 3/3/1
f 2/2/2 4/4/2 5/5/2
f 6/6/3 7/7/3 1/1/3
f 8/8/4 9/9/4 10/10/4
f 11/11/5 12/12/5 13/13/5
f 14/14/6 10/10/6 15/15/6
f 16/16/7 9/9/7 6/17/7
f 3/3/8 17/18/8 9/9/8
f 18/19/9 11/20/9 19/21/9
f 16/22/10 1/1/10 12/12/10
f 6/17/7 17/18/7 20/23/7
f 21/24/11 22/25/11 23/26/11
f 12/12/1 3/3/1 8/8/1
f 24/27/12 25/28/12 26/29/12
f 27/30/13 28/31/13 21/24/13
f 15/15/7 16/16/7 11/32/7
f 23/26/14 13/33/14 29/34/14
f 29/34/15 15/35/15 18/19/15
f 18/19/16 30/36/16 31/37/16
f 29/34/17 27/30/17 21/24/17
f 14/14/1 12/12/1 8/8/1
f 5/5/18 32/38/18 33/39/18
f 17/18/19 32/38/19 20/23/19
f 20/40/20 4/4/20 7/7/20
f 2/2/21 33/39/21 17/18/21
f 28/41/22 34/42/23 35/43/24
f 19/21/25 36/44/25 37/45/25
f 30/36/26 37/45/26 38/46/26
f 26/47/27 39/48/27 40/49/27
f 18/19/28 25/28/28 29/34/28
f 31/37/29 41/50/29 18/19/29
f 31/51/30 26/52/30 42/53/30
f 43/54/31 44/55/31 39/48/31
f 42/56/30 40/57/30 45/58/30
f 41/59/32 39/48/32 25/60/32
f 42/61/33 43/54/33 41/59/33
f 46/62/34 47/63/34 44/55/34
f 45/64/35 46/62/35 43/54/35
f 40/49/36 44/55/36 48/65/36
f 40/57/30 49/66/30 45/58/30
f 50/67/37 51/68/37 52/69/37
f 53/70/38 52/71/38 54/72/38
f 53/73/39 11/20/39 13/74/39
f 22/75/40 50/67/40 23/76/40
f 23/76/41 52/69/41 13/77/41
f 53/70/42 55/78/42 22/75/42
f 56/79/43 57/80/43 58/81/43
f 50/67/44 59/82/44 56/79/44
f 55/78/45 60/83/45 59/82/45
f 52/71/46 60/83/46 54/72/46
f 58/81/47 61/84/47 62/85/47
f 59/82/48 61/84/48 57/80/48
f 51/86/49 61/84/49 60/83/49
f 56/79/50 62/85/50 51/68/50
f 22/25/51 21/24/51 28/31/51
f 37/45/52 36/44/52 35/87/52
f 38/46/53 37/45/53 35/87/53
f 36/44/54 28/31/54 35/87/54
f 63/88/55 64/89/55 65/90/55
f 46/62/56 65/90/56 64/89/56
f 44/55/57 63/88/57 48/65/57
f 48/91/30 65/92/30 49/66/30
f 66/93/1 67/94/1 68/95/1
f 66/93/58 69/96/58 70/97/58
f 70/97/59 71/98/59 67/94/59
f 72/99/60 73/100/60 74/101/60
f 75/102/61 76/103/61 77/104/61
f 74/101/62 78/105/62 79/106/62
f 80/107/7 72/99/7 74/101/7
f 81/108/63 68/95/63 72/99/63
f 76/109/64 82/110/64 83/111/64
f 67/94/65 80/112/65 75/102/65
f 71/113/7 81/108/7 72/99/7
f 84/114/66 85/115/66 86/116/66
f 68/95/1 75/102/1 73/100/1
f 24/27/67 87/117/67 88/118/67
f 89/119/13 27/30/13 84/114/13
f 80/107/7 79/106/7 76/120/7
f 85/115/68 88/118/68 77/121/68
f 79/122/30 88/118/30 82/110/30
f 82/110/69 30/36/69 83/111/69
f 27/30/17 88/118/17 84/114/17
f 78/105/1 75/102/1 77/104/1
f 90/123/70 91/124/70 92/125/70
f 90/123/71 81/108/71 93/126/71
f 69/96/72 93/127/72 70/97/72
f 92/125/73 66/93/73 81/108/73
f 89/128/74 35/43/75 34/42/76
f 83/111/77 94/129/77 95/130/77
f 30/36/26 96/131/26 83/111/26
f 26/132/78 97/133/78 87/134/78
f 87/117/79 82/110/79 88/118/79
f 98/135/80 31/37/80 82/110/80
f 99/136/81 100/137/81 97/138/81
f 97/138/82 98/139/82 87/140/82
f 100/137/83 42/141/83 98/139/83
f 101/142/84 102/143/84 99/136/85
f 102/143/86 45/144/86 100/137/86
f 40/145/87 99/146/87 97/133/87
f 103/147/88 104/148/88 105/149/88
f 95/150/89 105/151/89 77/152/89
f 76/109/90 95/130/90 77/153/90
f 104/148/91 86/154/91 85/155/91
f 105/149/92 85/155/92 77/156/92
f 106/157/93 95/150/93 86/154/93
f 107/158/94 108/159/94 109/160/94
f 104/148/95 109/160/95 106/157/95
f 106/157/96 110/161/96 111/162/96
f 110/161/97 105/151/97 111/162/97
f 112/163/98 113/164/98 108/159/98
f 109/160/99 113/164/99 110/161/99
f 113/164/100 103/165/100 110/161/100
f 114/166/101 107/158/101 103/147/101
f 89/119/102 84/114/102 86/116/102
f 96/131/103 35/87/103 94/167/103
f 38/46/53 35/87/53 96/131/53
f 94/167/104 35/87/104 89/168/104
f 115/169/105 63/170/105 65/171/105
f 102/143/106 65/171/106 49/172/106
f 63/170/107 99/146/107 48/173/107
f 1/1/1 7/7/1 2/2/1
f 2/2/2 7/7/2 4/4/2
f 6/6/3 20/40/3 7/7/3
f 8/8/4 3/3/4 9/9/4
f 11/11/5 16/22/5 12/12/5
f 14/14/6 8/8/6 10/10/6
f 16/16/7 10/10/7 9/9/7
f 3/3/8 2/2/8 17/18/8
f 18/19/15 15/35/15 11/20/15
f 16/22/10 6/6/10 1/1/10
f 6/17/7 9/9/7 17/18/7
f 12/12/1 1/1/1 3/3/1
f 24/27/108 29/34/108 25/28/108
f 27/174/109 34/42/23 28/41/22
f 15/15/7 10/10/7 16/16/7
f 14/175/15 29/34/15 13/33/15
f 29/34/14 21/24/14 23/26/14
f 29/34/15 14/175/15 15/35/15
f 18/19/69 19/21/69 30/36/69
f 29/34/110 24/27/110 27/30/110
f 14/14/1 13/13/1 12/12/1
f 5/5/18 4/4/18 32/38/18
f 17/18/19 33/39/19 32/38/19
f 20/40/20 32/38/20 4/4/20
f 2/2/21 5/5/21 33/39/21
f 19/21/111 53/73/111 36/44/111
f 30/36/26 19/21/26 37/45/26
f 26/47/112 25/60/112 39/48/112
f 18/19/28 41/50/28 25/28/28
f 31/37/113 42/176/113 41/50/113
f 31/51/30 24/177/30 26/52/30
f 43/54/31 46/62/31 44/55/31
f 42/56/30 26/178/30 40/57/30
f 41/59/32 43/54/32 39/48/32
f 42/61/114 45/64/114 43/54/114
f 46/62/34 64/89/34 47/63/34
f 45/64/115 49/179/115 46/62/115
f 40/49/116 39/48/116 44/55/116
f 40/57/30 48/91/30 49/66/30
f 50/67/37 56/79/37 51/68/37
f 53/70/117 13/180/117 52/71/117
f 53/73/118 19/21/118 11/20/118
f 22/75/119 55/78/119 50/67/119
f 23/76/41 50/67/41 52/69/41
f 53/70/120 54/72/120 55/78/120
f 56/79/121 59/82/121 57/80/121
f 50/67/122 55/78/122 59/82/122
f 55/78/45 54/72/45 60/83/45
f 52/71/123 51/86/123 60/83/123
f 58/81/124 57/80/124 61/84/124
f 59/82/125 60/83/125 61/84/125
f 51/86/126 62/181/126 61/84/126
f 56/79/127 58/81/127 62/85/127
f 28/31/128 36/44/128 22/25/128
f 36/44/129 53/73/129 22/25/129
f 63/88/55 47/63/55 64/89/55
f 46/62/130 49/179/130 65/90/130
f 44/55/131 47/63/131 63/88/131
f 48/91/30 63/182/30 65/92/30
f 66/93/1 70/97/1 67/94/1
f 66/93/58 91/124/58 69/96/58
f 70/97/59 93/127/59 71/98/59
f 72/99/60 68/95/60 73/100/60
f 75/102/61 80/112/61 76/103/61
f 74/101/62 73/100/62 78/105/62
f 80/107/7 71/113/7 72/99/7
f 81/108/63 66/93/63 68/95/63
f 76/109/30 79/122/30 82/110/30
f 67/94/65 71/98/65 80/112/65
f 71/113/7 93/126/7 81/108/7
f 68/95/1 67/94/1 75/102/1
f 24/27/132 26/183/132 87/117/132
f 89/128/74 34/42/76 27/174/133
f 80/107/7 74/101/7 79/106/7
f 84/114/68 88/118/68 85/115/68
f 88/118/30 78/184/30 77/121/30
f 79/122/30 78/184/30 88/118/30
f 82/110/134 31/37/134 30/36/134
f 27/30/135 24/27/135 88/118/135
f 78/105/1 73/100/1 75/102/1
f 90/123/70 69/96/70 91/124/70
f 90/123/71 92/125/71 81/108/71
f 69/96/72 90/123/72 93/127/72
f 92/125/73 91/124/73 66/93/73
f 83/111/136 96/131/136 94/167/136
f 30/36/26 38/46/26 96/131/26
f 26/132/137 40/145/137 97/133/137
f 87/117/79 98/135/79 82/110/79
f 98/135/138 42/185/138 31/37/138
f 99/136/81 102/143/81 100/137/81
f 97/138/82 100/137/82 98/139/82
f 100/137/139 45/144/139 42/141/139
f 101/142/84 115/169/84 102/143/84
f 102/143/140 49/172/140 45/144/140
f 40/145/141 48/173/141 99/146/141
f 103/147/88 107/158/88 104/148/88
f 95/150/142 111/162/142 105/151/142
f 76/109/143 83/111/143 95/130/143
f 104/148/144 106/157/144 86/154/144
f 105/149/92 104/148/92 85/155/92
f 106/157/145 111/162/145 95/150/145
f 107/158/146 112/163/146 108/159/146
f 104/148/147 107/158/147 109/160/147
f 106/157/96 109/160/96 110/161/96
f 110/161/148 103/165/148 105/151/148
f 112/163/149 114/166/149 113/164/149
f 109/160/150 108/159/150 113/164/150
f 113/164/151 114/186/151 103/165/151
f 114/166/152 112/163/152 107/158/152
f 95/130/153 94/129/153 86/116/153
f 94/129/154 89/119/154 86/116/154
f 115/169/105 101/142/105 63/170/105
f 102/143/155 115/169/155 65/171/155
f 63/170/156 101/142/156 99/146/156
