# Blender v2.82 (sub 7) OBJ File: 'spaceship.blend'
# www.blender.org
mtllib spaceship.mtl
o Player_Spaceship
v -1.480663 0.285446 -2.164828
v -1.480663 -0.285446 -2.164828
v -1.392278 0.285446 -1.600821
v -1.392278 -0.285446 -1.600821
v -1.114214 -0.285446 -1.493065
v -1.114214 0.285446 -1.493065
v -0.956344 -0.285446 -2.041694
v -0.956344 0.285446 -2.041694
v -0.319290 0.285446 -1.506178
v -0.319290 -0.285446 -1.506178
v -0.818849 0.285446 -1.229850
v -0.818849 -0.285446 -1.229850
v 1.000000 1.000000 -1.219879
v 1.000000 -1.000000 -1.219879
v -0.673339 -0.285446 -1.000000
v -0.673339 0.285446 -1.000000
v -1.000000 0.663634 -1.000000
v -1.000000 -0.663634 -1.000000
v -0.102448 -0.285446 -1.000000
v -0.102448 0.285446 -1.000000
v -1.639393 0.365680 -2.221167
v -1.639393 -0.365680 -2.221167
v -1.526165 0.365680 -1.498626
v -1.526165 -0.365680 -1.498626
v 2.521026 -0.039236 -1.000000
v 2.521026 -0.699085 -1.000000
v -1.513762 -0.588487 0.000000
v -1.460081 0.571249 0.000000
v -1.051053 0.376202 -0.673288
v -1.051053 -0.393439 -0.673288
v -1.615307 -0.393717 0.000000
v -1.615307 0.376479 0.000000
v -1.694114 0.246946 -0.672939
v -1.694114 -0.264183 -0.672939
v -1.948815 -0.393717 0.000000
v -1.948815 0.376479 0.000000
v -2.027621 0.246946 -0.543261
v -2.027621 -0.264183 -0.543261
v 0.250357 0.514117 -1.070366
v 1.000000 0.276332 -1.219879
v 1.000000 -0.047593 -1.750581
v -0.073030 0.285446 -2.350508
v 0.279774 0.514117 -2.420874
v 0.730646 0.276332 -2.570388
v 0.882576 -0.026560 -2.667185
v -0.215603 0.550267 -3.506565
v -0.005816 0.686241 -3.548407
v 0.439944 0.544848 -3.637311
v 0.530285 0.364739 -3.694870
v -0.524338 0.752956 -4.390364
v -0.412486 0.837915 -4.463537
v -0.174823 0.749570 -4.619016
v -0.135875 0.637035 -4.673447
v 2.521026 -0.244565 -1.530702
v -2.212348 -0.563417 0.000000
v -2.212348 0.546179 0.000000
v -2.195535 0.359564 -0.602502
v -2.195535 -0.376802 -0.602502
v -1.480663 0.285446 2.164828
v -1.480663 -0.285446 2.164828
v -1.392278 0.285446 1.600821
v -1.392278 -0.285446 1.600821
v -1.114214 -0.285446 1.493065
v -1.114214 0.285446 1.493065
v -0.956344 -0.285446 2.041694
v -0.956344 0.285446 2.041694
v -0.319290 0.285446 1.506178
v -0.319290 -0.285446 1.506178
v -0.818849 0.285446 1.229850
v -0.818849 -0.285446 1.229850
v -1.367298 -1.000000 0.000000
v -1.367298 1.000000 0.000000
v 1.000000 -1.000000 0.000000
v 1.000000 1.000000 0.000000
v 1.000000 1.000000 1.219879
v 1.000000 -1.000000 1.219879
v -0.673339 -0.285446 1.000000
v -0.673339 0.285446 1.000000
v -1.000000 0.663634 1.000000
v -1.000000 -0.663634 1.000000
v -0.102448 -0.285446 1.000000
v -0.102448 0.285446 1.000000
v -1.639393 0.365680 2.221167
v -1.639393 -0.365680 2.221167
v -1.526165 0.365680 1.498626
v -1.526165 -0.365680 1.498626
v 2.521026 -0.699085 0.000000
v 2.521026 0.209037 0.000000
v 2.521026 -0.039236 1.000000
v 2.521026 -0.699085 1.000000
v -1.051053 0.376202 0.673288
v -1.051053 -0.393439 0.673288
v -1.694114 0.246946 0.672939
v -1.694114 -0.264183 0.672939
v -2.027621 0.246946 0.543261
v -2.027621 -0.264183 0.543261
v 0.250357 0.514117 1.070366
v 1.000000 0.276332 1.219879
v 1.000000 -0.047593 1.750581
v -0.073030 0.285446 2.350508
v 0.279774 0.514117 2.420874
v 0.730646 0.276332 2.570388
v 0.882576 -0.026560 2.667185
v -0.215603 0.550267 3.506565
v -0.005816 0.686241 3.548407
v 0.439944 0.544848 3.637311
v 0.530285 0.364739 3.694870
v -0.524338 0.752956 4.390364
v -0.412486 0.837915 4.463537
v -0.174823 0.749570 4.619016
v -0.135875 0.637035 4.673447
v 2.521026 -0.244565 1.530702
v 3.681382 -0.380174 0.000000
v -2.195535 0.359564 0.602502
v -2.195535 -0.376802 0.602502
vt 0.550954 0.724551
vt 0.557267 0.686516
vt 0.577894 0.690818
vt 0.532134 0.692606
vt 0.544371 0.682458
vt 0.502752 0.760302
vt 0.532877 0.698761
vt 0.614608 0.696067
vt 0.568898 0.642890
vt 0.609780 0.634968
vt 0.662303 0.830013
vt 0.615513 0.752115
vt 0.674496 0.757279
vt 0.644359 0.696216
vt 0.640071 0.634527
vt 0.615872 0.572145
vt 0.527082 0.597715
vt 0.546017 0.654859
vt 0.218103 0.433355
vt 0.195854 0.417374
vt 0.207137 0.360815
vt 0.592717 0.814385
vt 0.487514 0.648528
vt 0.111403 0.435526
vt 0.134438 0.398297
vt 0.159034 0.429847
vt 0.211399 0.477517
vt 0.206992 0.456407
vt 0.218436 0.470223
vt 0.000238 0.661726
vt 0.059130 0.280073
vt 0.674496 0.583156
vt 0.178625 0.432585
vt 0.194969 0.456754
vt 0.205768 0.432253
vt 0.296203 0.349825
vt 0.239355 0.444947
vt 0.477381 0.664126
vt 0.540438 0.662614
vt 0.481363 0.694125
vt 0.845127 0.188616
vt 0.909486 0.119382
vt 0.987446 0.209814
vt 0.120161 0.299300
vt 0.166780 0.269143
vt 0.245029 0.209866
vt 0.066887 0.999762
vt 0.064281 0.920055
vt 0.089357 0.985430
vt 0.219183 0.443796
vt 0.886000 0.572145
vt 0.877488 0.716302
vt 0.872563 0.609900
vt 0.064682 0.872955
vt 0.096267 0.918300
vt 0.254445 0.863218
vt 0.166303 0.850732
vt 0.236921 0.853267
vt 0.000238 0.856233
vt 0.001496 0.939444
vt 0.070073 0.795432
vt 0.095702 0.875709
vt 0.107983 0.918005
vt 0.089626 0.808177
vt 0.118126 0.968650
vt 0.238018 0.822688
vt 0.673968 0.077844
vt 0.560741 0.073651
vt 0.669176 0.037155
vt 0.758410 0.155680
vt 0.674212 0.252610
vt 0.676035 0.158279
vt 0.157348 0.378711
vt 0.178752 0.432262
vt 0.806298 0.119587
vt 0.800411 0.041809
vt 0.796302 0.000238
vt 0.676623 0.128110
vt 0.566112 0.095897
vt 0.488952 0.135246
vt 0.486950 0.114793
vt 0.580382 0.136904
vt 0.582881 0.153983
vt 0.481424 0.146247
vt 0.478267 0.102720
vt 0.561366 0.219152
vt 0.122323 0.053779
vt 0.147459 0.956013
vt 0.114281 0.879071
vt 0.147459 0.837995
vt 0.167400 0.820154
vt 0.254445 0.799083
vt 0.754857 0.715642
vt 0.748545 0.677607
vt 0.775485 0.711340
vt 0.729725 0.709552
vt 0.730468 0.703397
vt 0.700343 0.641856
vt 0.766489 0.759268
vt 0.812199 0.706091
vt 0.807371 0.767189
vt 0.813104 0.650043
vt 0.859894 0.572145
vt 0.872087 0.644880
vt 0.841950 0.705942
vt 0.837662 0.767631
vt 0.813463 0.830013
vt 0.743608 0.747299
vt 0.290205 0.492551
vt 0.259532 0.465547
vt 0.469954 0.421191
vt 0.790308 0.587773
vt 0.724673 0.804443
vt 0.248331 0.617727
vt 0.267804 0.552976
vt 0.312382 0.602042
vt 0.233496 0.481967
vt 0.233820 0.496073
vt 0.400172 0.794957
vt 0.872087 0.819002
vt 0.266172 0.520970
vt 0.263836 0.481096
vt 0.674972 0.738032
vt 0.741962 0.719700
vt 0.738029 0.739544
vt 0.685105 0.753630
vt 0.678954 0.708033
vt 0.987446 0.065925
vt 0.476906 0.749407
vt 0.360519 0.572530
vt 0.369411 0.156466
vt 0.913808 0.210289
vt 0.862619 0.277452
vt 0.826486 0.216614
vt 0.246003 0.466458
vt 0.891167 0.338580
vt 0.883071 0.393274
vt 0.862212 0.353324
vt 0.839526 0.430421
vt 0.806773 0.370652
vt 0.910328 0.454161
vt 0.899850 0.324047
vt 0.910548 0.379659
vt 0.921998 0.438588
vt 0.923874 0.235200
vt 0.891707 0.302827
vt 0.560742 0.498257
vt 0.673968 0.494063
vt 0.669176 0.534752
vt 0.758410 0.416227
vt 0.674212 0.319297
vt 0.806298 0.286191
vt 0.266695 0.520801
vt 0.806298 0.452320
vt 0.800411 0.530098
vt 0.796302 0.571669
vt 0.676623 0.443797
vt 0.566112 0.476010
vt 0.488952 0.436661
vt 0.580383 0.435003
vt 0.582881 0.417924
vt 0.676035 0.413628
vt 0.486950 0.457114
vt 0.481424 0.425660
vt 0.561366 0.352755
vt 0.478267 0.469188
vt 0.476906 0.078655
vt 0.407016 0.000238
vt 0.924842 0.372979
vt 0.960970 0.294092
vt 0.960970 0.403553
vt 0.940475 0.418550
vt 0.940834 0.266929
vt 0.806773 0.000238
vt 0.194723 0.443663
vt 0.234903 0.453093
vt 0.886000 0.755639
vt 0.147934 0.864324
vt 0.118159 0.825212
vt 0.806298 0.285716
vt 0.477381 0.191680
vt 0.152708 0.795432
vt 0.218604 0.470385
vt 0.249745 0.496258
vt 0.235168 0.453033
vt 0.477381 0.380227
vn 0.0000 1.0000 0.0000
vn 0.4706 0.8793 -0.0737
vn 0.2286 0.0000 -0.9735
vn -0.6653 0.0000 0.7466
vn 0.9192 0.0000 -0.3938
vn -0.8449 0.0000 0.5349
vn 0.0000 -1.0000 -0.0000
vn -0.3613 0.0000 0.9324
vn -0.0770 0.1828 -0.9801
vn 0.6435 0.0000 -0.7655
vn -0.1956 0.0000 -0.9807
vn -0.8176 0.1769 -0.5479
vn 0.5641 0.8257 0.0000
vn -0.0770 -0.1828 -0.9801
vn 0.0000 0.0000 -1.0000
vn 0.0000 -0.9478 -0.3188
vn -0.1659 0.9862 0.0000
vn -0.9879 0.0000 0.1548
vn 0.4706 -0.8793 -0.0737
vn 0.3345 0.0000 -0.9424
vn 0.6067 0.0000 0.7949
vn 0.4421 0.8706 -0.2161
vn 0.2373 -0.7378 -0.6319
vn 0.1941 -0.9810 0.0000
vn -0.7817 0.6230 -0.0284
vn -0.9880 0.0000 -0.1544
vn -0.9421 0.1709 -0.2885
vn 0.0000 0.0000 1.0000
vn -0.3624 0.0000 -0.9320
vn -0.0005 0.0000 -1.0000
vn -0.1819 -0.9040 -0.3869
vn 0.3327 0.0000 -0.9430
vn -0.0702 -0.9810 -0.1806
vn 0.0000 0.9727 -0.2319
vn -0.4906 0.8343 0.2516
vn -0.3052 -0.9521 0.0172
vn -0.5628 0.0000 -0.8266
vn 0.3035 0.9528 0.0066
vn -0.5455 0.8380 -0.0119
vn 0.9339 0.3052 -0.1863
vn 0.3487 0.9372 0.0004
vn 0.3135 0.9473 0.0652
vn 0.8720 0.4751 -0.1180
vn -0.3675 -0.9041 -0.2182
vn -0.5767 0.0574 -0.8149
vn 0.7904 0.4659 -0.3978
vn -0.2616 -0.9610 -0.0893
vn -0.4600 0.8169 0.3480
vn 0.1431 0.0000 -0.9897
vn 0.6098 -0.6020 -0.5156
vn 0.2650 -0.9642 0.0000
vn 0.5049 0.8050 -0.3115
vn -0.9996 0.0000 -0.0279
vn 0.5960 -0.7716 -0.2224
vn 0.5215 0.8098 -0.2687
vn 0.4706 0.8793 0.0737
vn 0.2286 0.0000 0.9735
vn -0.6653 0.0000 -0.7466
vn 0.9192 0.0000 0.3938
vn -0.8449 0.0000 -0.5349
vn -0.3613 0.0000 -0.9324
vn -0.0770 0.1828 0.9801
vn 0.6435 0.0000 0.7655
vn -0.1956 0.0000 0.9807
vn -0.9426 -0.1636 0.2912
vn -0.0770 -0.1828 0.9801
vn -0.1659 -0.9862 0.0000
vn -0.9879 0.0000 -0.1548
vn 0.4706 -0.8793 0.0737
vn 0.3345 0.0000 0.9424
vn 0.6067 0.0000 -0.7949
vn 0.4421 0.8706 0.2161
vn 0.0631 -0.4858 0.8718
vn -0.1829 0.9090 0.3745
vn -0.9880 0.0000 0.1544
vn -0.9421 0.1709 0.2885
vn -0.3624 0.0000 0.9320
vn -0.0005 0.0000 1.0000
vn -0.1819 -0.9040 0.3869
vn 0.3327 0.0000 0.9430
vn -0.0702 -0.9810 0.1806
vn -0.0702 0.9810 0.1806
vn -0.4906 0.8343 -0.2516
vn -0.2932 -0.9560 0.0064
vn -0.5628 0.0000 0.8266
vn 0.3035 0.9528 -0.0066
vn -0.5455 0.8380 0.0119
vn 0.9339 0.3052 0.1863
vn 0.3039 0.9527 -0.0084
vn 0.4869 0.8692 -0.0861
vn 0.8720 0.4751 0.1180
vn -0.3675 -0.9041 0.2182
vn -0.4629 0.2510 0.8501
vn 0.7708 0.5090 0.3831
vn -0.2616 -0.9610 0.0893
vn -0.4600 0.8169 -0.3480
vn 0.1431 0.0000 0.9897
vn 0.6098 -0.6020 0.5156
vn 0.5049 0.8050 0.3115
vn -0.9996 0.0000 0.0279
vn 0.5215 -0.8098 0.2687
vn 0.5215 0.8098 0.2687
vn -0.9426 -0.1636 -0.2912
vn 0.4506 0.8664 -0.2151
vn 0.0000 0.9478 -0.3188
vn 0.0631 -0.4858 -0.8718
vn -0.1829 0.9090 -0.3745
vn -0.7556 -0.2689 -0.5972
vn -0.8866 -0.4623 0.0149
vn 0.0000 -0.9727 -0.2319
vn -0.0702 0.9810 -0.1806
vn -0.2932 -0.9560 -0.0064
vn -0.4398 -0.4372 -0.7845
vn 0.4417 0.8928 -0.0881
vn 0.8759 0.4717 -0.1014
vn 0.3039 0.9527 0.0084
vn 0.4869 0.8692 0.0861
vn -0.2803 -0.9426 -0.1814
vn -0.4629 0.2510 -0.8501
vn 0.7708 0.5090 -0.3831
vn -0.3464 -0.9335 -0.0931
vn -0.4254 0.8432 0.3288
vn 0.2386 0.9057 -0.3504
vn 0.1827 0.8392 -0.5122
vn 0.5215 -0.8098 -0.2687
vn 0.5960 0.7716 -0.2224
vn -0.8176 0.1769 0.5479
vn 0.4506 0.8664 0.2151
vn 0.0000 -0.9478 0.3188
vn 0.0000 0.9478 0.3188
vn 0.2373 -0.7378 0.6319
vn -0.7817 0.6230 0.0284
vn -0.7556 -0.2689 0.5972
vn -0.8866 -0.4623 -0.0149
vn 0.0000 -0.9727 0.2319
vn 0.0000 0.9727 0.2319
vn -0.3052 -0.9521 -0.0172
vn -0.4398 -0.4372 0.7845
vn 0.4417 0.8928 0.0881
vn 0.8759 0.4717 0.1014
vn 0.3487 0.9372 -0.0004
vn 0.3135 0.9473 -0.0652
vn -0.2803 -0.9426 0.1814
vn -0.5767 0.0574 0.8149
vn 0.7904 0.4659 0.3978
vn -0.3464 -0.9335 0.0931
vn -0.4254 0.8432 -0.3288
vn 0.1827 0.8392 0.5122
vn 0.2386 0.9057 0.3504
vn 0.5960 -0.7716 0.2224
vn 0.5960 0.7716 0.2224
usemtl Material
s off
f 8/1/1 3/2/1 6/3/1
f 3/2/2 21/4/2 23/5/2
f 7/6/3 1/7/3 8/1/3
f 11/8/4 5/9/4 12/10/4
f 19/11/5 9/12/5 20/13/5
f 16/14/6 12/10/6 15/15/6
f 10/16/7 5/9/7 7/17/7
f 6/3/8 4/18/8 5/9/8
f 18/19/9 19/20/9 14/21/9
f 10/22/10 8/1/10 9/12/10
f 7/17/7 4/18/7 2/23/7
f 13/24/11 40/25/11 39/26/11
f 9/12/1 6/3/1 11/8/1
f 72/27/12 29/28/12 28/29/12
f 74/30/13 25/31/13 13/24/13
f 15/15/7 10/16/7 19/32/7
f 39/26/14 20/33/14 17/34/14
f 17/34/15 15/35/15 18/19/15
f 18/19/16 73/36/16 71/37/16
f 17/34/17 74/30/17 13/24/17
f 16/14/1 9/12/1 11/8/1
f 23/5/18 22/38/18 24/39/18
f 4/18/19 22/38/19 2/23/19
f 2/40/20 21/4/20 1/7/20
f 3/2/21 24/39/21 4/18/21
f 25/41/22 88/42/22 113/43/22
f 14/21/23 54/44/23 26/45/23
f 73/36/24 26/45/24 87/46/24
f 28/47/25 33/48/25 32/49/25
f 18/19/26 29/28/26 17/34/26
f 71/37/27 30/50/27 18/19/27
f 71/51/28 28/52/28 27/53/28
f 34/54/29 37/55/29 33/48/29
f 27/56/28 32/57/28 31/58/28
f 30/59/30 33/48/30 29/60/30
f 27/61/31 34/54/31 30/59/31
f 38/62/32 57/63/32 37/55/32
f 31/64/33 38/62/33 34/54/33
f 32/49/34 37/55/34 36/65/34
f 32/57/28 35/66/28 31/58/28
f 43/67/35 46/68/35 42/69/35
f 41/70/36 42/71/36 45/72/36
f 41/73/37 19/20/37 20/74/37
f 40/75/38 43/67/38 39/76/38
f 39/76/39 42/69/39 20/77/39
f 41/70/40 44/78/40 40/75/40
f 47/79/41 52/80/41 51/81/41
f 43/67/42 48/82/42 47/79/42
f 44/78/43 49/83/43 48/82/43
f 42/71/44 49/83/44 45/72/44
f 51/81/45 53/84/45 50/85/45
f 48/82/46 53/84/46 52/80/46
f 46/86/47 53/84/47 49/83/47
f 47/79/48 50/85/48 46/68/48
f 40/25/49 13/24/49 25/31/49
f 26/45/50 54/44/50 113/87/50
f 87/46/51 26/45/51 113/87/51
f 54/44/52 25/31/52 113/87/52
f 56/88/53 58/89/53 55/90/53
f 38/62/54 55/90/54 58/89/54
f 37/55/55 56/88/55 36/65/55
f 36/91/28 55/92/28 35/66/28
f 61/93/1 66/94/1 64/95/1
f 61/93/56 83/96/56 59/97/56
f 59/97/57 65/98/57 66/94/57
f 63/99/58 69/100/58 70/101/58
f 67/102/59 81/103/59 82/104/59
f 70/101/60 78/105/60 77/106/60
f 68/107/7 63/99/7 70/101/7
f 62/108/61 64/95/61 63/99/61
f 81/109/62 80/110/62 76/111/62
f 66/94/63 68/112/63 67/102/63
f 65/113/7 62/108/7 63/99/7
f 75/114/64 97/115/64 98/116/64
f 64/95/1 67/102/1 69/100/1
f 72/27/65 91/117/65 79/118/65
f 89/119/13 74/30/13 75/114/13
f 68/107/7 77/106/7 81/120/7
f 97/115/66 79/118/66 82/121/66
f 77/122/28 79/118/28 80/110/28
f 80/110/67 73/36/67 76/111/67
f 74/30/17 79/118/17 75/114/17
f 78/105/1 67/102/1 82/104/1
f 84/123/68 85/124/68 86/125/68
f 84/123/69 62/108/69 60/126/69
f 83/96/70 60/127/70 59/97/70
f 86/125/71 61/93/71 62/108/71
f 89/128/72 113/43/72 88/42/72
f 76/111/73 112/129/73 99/130/73
f 73/36/24 90/131/24 76/111/24
f 28/132/74 93/133/74 91/134/74
f 91/117/75 80/110/75 79/118/75
f 92/135/76 71/37/76 80/110/76
f 95/136/77 94/137/77 93/138/77
f 93/138/78 92/139/78 91/140/78
f 94/137/79 27/141/79 92/139/79
f 114/142/80 96/143/80 95/136/80
f 96/143/81 31/144/81 94/137/81
f 32/145/82 95/146/82 93/133/82
f 104/147/83 101/148/83 100/149/83
f 99/150/84 100/151/84 82/152/84
f 81/109/85 99/130/85 82/153/85
f 101/148/86 98/154/86 97/155/86
f 100/149/87 97/155/87 82/156/87
f 102/157/88 99/150/88 98/154/88
f 105/158/89 110/159/89 106/160/89
f 101/148/90 106/160/90 102/157/90
f 102/157/91 107/161/91 103/162/91
f 107/161/92 100/151/92 103/162/92
f 109/163/93 111/164/93 110/159/93
f 106/160/94 111/164/94 107/161/94
f 111/164/95 104/165/95 107/161/95
f 108/166/96 105/158/96 104/147/96
f 89/119/97 75/114/97 98/116/97
f 90/131/98 113/87/98 112/167/98
f 87/46/51 113/87/51 90/131/51
f 112/167/99 113/87/99 89/168/99
f 115/169/100 56/170/100 55/171/100
f 96/143/101 55/171/101 35/172/101
f 56/170/102 95/146/102 36/173/102
f 8/1/1 1/7/1 3/2/1
f 3/2/2 1/7/2 21/4/2
f 7/6/3 2/40/3 1/7/3
f 11/8/4 6/3/4 5/9/4
f 19/11/5 10/22/5 9/12/5
f 16/14/6 11/8/6 12/10/6
f 10/16/7 12/10/7 5/9/7
f 6/3/8 3/2/8 4/18/8
f 18/19/15 15/35/15 19/20/15
f 10/22/10 7/6/10 8/1/10
f 7/17/7 5/9/7 4/18/7
f 9/12/1 8/1/1 6/3/1
f 72/27/103 17/34/103 29/28/103
f 74/174/104 88/42/104 25/41/104
f 15/15/7 12/10/7 10/16/7
f 16/175/15 17/34/15 20/33/15
f 17/34/14 13/24/14 39/26/14
f 17/34/15 16/175/15 15/35/15
f 18/19/67 14/21/67 73/36/67
f 17/34/105 72/27/105 74/30/105
f 16/14/1 20/13/1 9/12/1
f 23/5/18 21/4/18 22/38/18
f 4/18/19 24/39/19 22/38/19
f 2/40/20 22/38/20 21/4/20
f 3/2/21 23/5/21 24/39/21
f 14/21/106 41/73/106 54/44/106
f 73/36/24 14/21/24 26/45/24
f 28/47/107 29/60/107 33/48/107
f 18/19/26 30/50/26 29/28/26
f 71/37/108 27/176/108 30/50/108
f 71/51/28 72/177/28 28/52/28
f 34/54/29 38/62/29 37/55/29
f 27/56/28 28/178/28 32/57/28
f 30/59/30 34/54/30 33/48/30
f 27/61/109 31/64/109 34/54/109
f 38/62/32 58/89/32 57/63/32
f 31/64/110 35/179/110 38/62/110
f 32/49/111 33/48/111 37/55/111
f 32/57/28 36/91/28 35/66/28
f 43/67/35 47/79/35 46/68/35
f 41/70/112 20/180/112 42/71/112
f 41/73/113 14/21/113 19/20/113
f 40/75/114 44/78/114 43/67/114
f 39/76/39 43/67/39 42/69/39
f 41/70/115 45/72/115 44/78/115
f 47/79/116 48/82/116 52/80/116
f 43/67/117 44/78/117 48/82/117
f 44/78/43 45/72/43 49/83/43
f 42/71/118 46/86/118 49/83/118
f 51/81/119 52/80/119 53/84/119
f 48/82/120 49/83/120 53/84/120
f 46/86/121 50/181/121 53/84/121
f 47/79/122 51/81/122 50/85/122
f 25/31/123 54/44/123 40/25/123
f 54/44/124 41/73/124 40/25/124
f 56/88/53 57/63/53 58/89/53
f 38/62/125 35/179/125 55/90/125
f 37/55/126 57/63/126 56/88/126
f 36/91/28 56/182/28 55/92/28
f 61/93/1 59/97/1 66/94/1
f 61/93/56 85/124/56 83/96/56
f 59/97/57 60/127/57 65/98/57
f 63/99/58 64/95/58 69/100/58
f 67/102/59 68/112/59 81/103/59
f 70/101/60 69/100/60 78/105/60
f 68/107/7 65/113/7 63/99/7
f 62/108/61 61/93/61 64/95/61
f 81/109/28 77/122/28 80/110/28
f 66/94/63 65/98/63 68/112/63
f 65/113/7 60/126/7 62/108/7
f 64/95/1 66/94/1 67/102/1
f 72/27/127 28/183/127 91/117/127
f 89/128/128 88/42/128 74/174/128
f 68/107/7 70/101/7 77/106/7
f 75/114/66 79/118/66 97/115/66
f 79/118/28 78/184/28 82/121/28
f 77/122/28 78/184/28 79/118/28
f 80/110/129 71/37/129 73/36/129
f 74/30/130 72/27/130 79/118/130
f 78/105/1 69/100/1 67/102/1
f 84/123/68 83/96/68 85/124/68
f 84/123/69 86/125/69 62/108/69
f 83/96/70 84/123/70 60/127/70
f 86/125/71 85/124/71 61/93/71
f 76/111/131 90/131/131 112/167/131
f 73/36/24 87/46/24 90/131/24
f 28/132/132 32/145/132 93/133/132
f 91/117/75 92/135/75 80/110/75
f 92/135/133 27/185/133 71/37/133
f 95/136/77 96/143/77 94/137/77
f 93/138/78 94/137/78 92/139/78
f 94/137/134 31/144/134 27/141/134
f 114/142/80 115/169/80 96/143/80
f 96/143/135 35/172/135 31/144/135
f 32/145/136 36/173/136 95/146/136
f 104/147/83 105/158/83 101/148/83
f 99/150/137 103/162/137 100/151/137
f 81/109/138 76/111/138 99/130/138
f 101/148/139 102/157/139 98/154/139
f 100/149/87 101/148/87 97/155/87
f 102/157/140 103/162/140 99/150/140
f 105/158/141 109/163/141 110/159/141
f 101/148/142 105/158/142 106/160/142
f 102/157/91 106/160/91 107/161/91
f 107/161/143 104/165/143 100/151/143
f 109/163/144 108/166/144 111/164/144
f 106/160/145 110/159/145 111/164/145
f 111/164/146 108/186/146 104/165/146
f 108/166/147 109/163/147 105/158/147
f 99/130/148 112/129/148 98/116/148
f 112/129/149 89/119/149 98/116/149
f 115/169/100 114/142/100 56/170/100
f 96/143/150 115/169/150 55/171/150
f 56/170/151 114/142/151 95/146/151
