# Blender v2.82 (sub 7) OBJ File: 'ufo.blend'
# www.blender.org
mtllib ufo.mtl
o Spaceship_Sp
v 0.745000 0.377612 -1.000000
v 1.000000 -0.377612 -1.000000
v 0.745000 0.377612 1.000000
v 1.000000 -0.377612 1.000000
v -0.700000 0.377612 -1.000000
v -1.000000 -0.377612 -1.000000
v -0.700000 0.377612 1.000000
v -1.000000 -0.377612 1.000000
v 1.482500 0.125871 -2.000000
v 1.482500 -0.125871 -2.000000
v -1.407500 -0.125871 2.000000
v -1.407500 0.125871 2.000000
v 1.482500 0.125871 2.000000
v 1.482500 -0.125871 2.000000
v -1.407500 0.125871 -2.000000
v -1.407500 -0.125871 -2.000000
v -1.000000 -0.377612 -0.633333
v -1.000000 -0.377612 0.633333
v 1.000000 0.377612 -0.633333
v 1.000000 0.377612 0.633333
v -1.000000 0.377612 0.633333
v -1.000000 0.377612 -0.633333
v 1.000000 -0.377612 0.633333
v 1.000000 -0.377612 -0.633333
v 1.992500 -0.125871 -1.266667
v 1.992500 -0.125871 1.266667
v 1.992500 0.125871 -1.266667
v 1.992500 0.125871 1.266667
v -2.007500 -0.125871 1.266667
v -2.007500 -0.125871 -1.266667
v -2.007500 0.125871 1.266667
v -2.007500 0.125871 -1.266667
v -0.700000 -0.377612 -1.000000
v -0.700000 -0.377612 1.000000
v -0.700000 -0.377612 -0.633333
v -0.700000 -0.377612 0.633333
v -1.007115 0.677612 -0.849299
v -1.007115 0.677612 0.849299
v 0.745000 -0.377612 1.000000
v 1.052115 0.677612 -0.849299
v 1.052115 0.677612 0.849299
v 0.745000 -0.377612 -1.000000
v 0.745000 -0.377612 -0.633333
v 0.745000 -0.377612 0.633333
v -0.439900 0.977612 -0.405333
v -0.439900 0.977612 0.405333
v 0.484900 0.977612 -0.405333
v 0.484900 0.977612 0.405333
vt 0.162681 0.445040
vt 0.162681 0.470483
vt 0.133402 0.456141
vt 0.279066 0.227350
vt 0.370897 0.207888
vt 0.321387 0.278704
vt 0.182958 0.070274
vt 0.208214 0.087866
vt 0.182974 0.087834
vt 0.557313 0.051887
vt 0.469517 0.071048
vt 0.521566 0.000599
vt 0.070668 0.088019
vt 0.000262 0.036297
vt 0.070801 0.070532
vt 0.227404 0.000098
vt 0.208121 0.070343
vt 0.557509 0.999902
vt 0.574833 0.938431
vt 0.574833 0.999902
vt 0.051460 0.278972
vt 0.070870 0.207742
vt 0.096023 0.207844
vt 0.557509 0.500000
vt 0.574833 0.434794
vt 0.574833 0.500000
vt 0.208099 0.186998
vt 0.278718 0.236309
vt 0.208003 0.207515
vt 0.557509 0.739544
vt 0.574833 0.674338
vt 0.574833 0.739544
vt 0.557509 0.674338
vt 0.227267 0.278792
vt 0.182941 0.207638
vt 0.557509 0.235908
vt 0.574833 0.174437
vt 0.574833 0.235908
vt 0.557509 0.174437
vt 0.574833 0.000098
vt 0.051661 0.000227
vt 0.095896 0.070448
vt 0.469707 0.208133
vt 0.557313 0.227650
vt 0.521442 0.278702
vt 0.487201 0.182986
vt 0.095906 0.088006
vt 0.370625 0.071068
vt 0.278915 0.051264
vt 0.321339 0.000098
vt 0.350053 0.096205
vt 0.241306 0.444772
vt 0.241306 0.477375
vt 0.218457 0.466182
vt 0.383143 0.744250
vt 0.362492 0.846282
vt 0.362492 0.729388
vt 0.210533 0.729388
vt 0.254691 0.815729
vt 0.210533 0.846282
vt 0.236792 0.699963
vt 0.357369 0.723067
vt 0.215657 0.723067
vt 0.096007 0.187204
vt 0.070815 0.187178
vt 0.557509 0.938431
vt 0.000098 0.236458
vt 0.182916 0.187018
vt 0.357369 0.852604
vt 0.236792 0.875708
vt 0.215657 0.852604
vt 0.186475 0.475775
vt 0.162877 0.465621
vt 0.186475 0.445040
vt 0.278718 0.036222
vt 0.186672 0.458582
vt 0.214905 0.445040
vt 0.214905 0.470730
vt 0.189578 0.831420
vt 0.189578 0.744250
vt 0.557509 0.434794
vt 0.318334 0.759941
vt 0.254691 0.759941
vt 0.318334 0.815729
vt 0.350406 0.182749
vt 0.486935 0.096244
vt 0.557509 0.000098
vt 0.383143 0.831420
vt 0.336234 0.699963
vt 0.336234 0.875708
vn -0.6993 -0.4285 0.5722
vn -0.1614 0.9780 -0.1320
vn 0.0000 -1.0000 0.0000
vn 0.1718 0.9779 0.1195
vn 0.0000 -0.9697 -0.2441
vn 0.2459 -0.9693 0.0000
vn 0.8210 0.0000 0.5710
vn -0.2424 -0.9702 0.0000
vn -0.7740 0.0000 -0.6332
vn 0.0000 -0.9697 0.2441
vn -0.7740 0.0000 0.6332
vn -1.0000 0.0000 0.0000
vn 0.8210 0.0000 -0.5710
vn 1.0000 0.0000 0.0000
vn 0.1718 0.9779 -0.1195
vn 0.2459 0.9693 0.0000
vn -0.1614 0.9780 0.1320
vn -0.2424 0.9702 0.0000
vn -0.6993 -0.4285 -0.5722
vn -0.9997 -0.0237 0.0000
vn 0.4675 0.8840 0.0000
vn 0.0000 0.4489 -0.8936
vn 0.0000 0.0000 1.0000
vn 0.0000 0.9697 0.2441
vn 0.0000 0.4489 0.8936
vn 0.7183 -0.4844 0.4995
vn 0.7183 -0.4844 -0.4995
vn 0.9852 -0.1712 0.0000
vn 0.0000 0.0000 -1.0000
vn 0.0000 0.9697 -0.2441
vn 0.0000 1.0000 0.0000
vn 0.0000 0.8286 -0.5599
vn 0.0000 0.8286 0.5599
vn -0.4675 0.8840 0.0000
vn 0.2068 -0.9677 0.1438
vn -0.1985 -0.9665 -0.1624
vn -0.1985 -0.9665 0.1624
vn 0.2068 -0.9677 -0.1438
usemtl Material
s off
f 38/1/1 21/2/1 7/3/1
f 32/4/2 5/5/2 15/6/2
f 23/7/3 39/8/3 44/9/3
f 28/10/4 3/11/4 13/12/4
f 42/13/5 10/14/5 2/15/5
f 26/16/6 4/17/6 23/7/6
f 28/18/7 14/19/7 26/20/7
f 30/21/8 6/22/8 17/23/8
f 32/24/9 16/25/9 30/26/9
f 34/27/10 11/28/10 8/29/10
f 12/30/11 29/31/11 11/32/11
f 31/33/12 30/26/12 29/31/12
f 8/29/8 29/34/8 18/35/8
f 29/34/8 17/23/8 18/35/8
f 9/36/13 25/37/13 10/38/13
f 27/39/14 26/40/14 25/37/14
f 2/15/6 25/41/6 24/42/6
f 25/41/6 23/7/6 24/42/6
f 1/43/15 27/44/15 9/45/15
f 19/46/16 28/10/16 27/44/16
f 2/15/3 43/47/3 42/13/3
f 24/42/3 44/9/3 43/47/3
f 7/48/17 31/49/17 12/50/17
f 21/51/18 32/4/18 31/49/18
f 5/52/19 22/53/19 37/54/19
f 22/55/20 38/56/20 37/57/20
f 40/58/21 48/59/21 41/60/21
f 1/61/22 37/62/22 40/63/22
f 35/64/3 18/35/3 17/23/3
f 33/65/3 17/23/3 6/22/3
f 13/66/23 11/32/23 14/19/23
f 39/8/10 11/28/10 34/27/10
f 6/22/5 16/67/5 33/65/5
f 36/68/3 8/29/3 18/35/3
f 3/11/24 12/50/24 13/12/24
f 38/69/25 3/70/25 41/71/25
f 20/72/26 41/73/26 3/74/26
f 4/17/10 14/75/10 39/8/10
f 1/76/27 40/77/27 19/78/27
f 40/58/28 20/79/28 19/80/28
f 43/47/3 36/68/3 35/64/3
f 42/13/3 35/64/3 33/65/3
f 15/81/29 10/38/29 16/25/29
f 16/67/5 42/13/5 33/65/5
f 15/6/30 1/43/30 9/45/30
f 44/9/3 34/27/3 36/68/3
f 45/82/31 48/59/31 47/83/31
f 37/62/32 47/83/32 40/63/32
f 38/69/33 48/59/33 46/84/33
f 38/56/34 45/82/34 37/57/34
f 32/4/2 22/85/2 5/5/2
f 23/7/3 4/17/3 39/8/3
f 28/10/4 20/86/4 3/11/4
f 26/16/35 14/75/35 4/17/35
f 28/18/7 13/66/7 14/19/7
f 30/21/36 16/67/36 6/22/36
f 32/24/9 15/81/9 16/25/9
f 12/30/11 31/33/11 29/31/11
f 31/33/12 32/24/12 30/26/12
f 8/29/37 11/28/37 29/34/37
f 29/34/8 30/21/8 17/23/8
f 9/36/13 27/39/13 25/37/13
f 27/39/14 28/87/14 26/40/14
f 2/15/38 10/14/38 25/41/38
f 25/41/6 26/16/6 23/7/6
f 1/43/15 19/46/15 27/44/15
f 19/46/16 20/86/16 28/10/16
f 2/15/3 24/42/3 43/47/3
f 24/42/3 23/7/3 44/9/3
f 7/48/17 21/51/17 31/49/17
f 21/51/18 22/85/18 32/4/18
f 22/55/20 21/88/20 38/56/20
f 40/58/21 47/83/21 48/59/21
f 1/61/22 5/89/22 37/62/22
f 35/64/3 36/68/3 18/35/3
f 33/65/3 35/64/3 17/23/3
f 13/66/23 12/30/23 11/32/23
f 39/8/10 14/75/10 11/28/10
f 36/68/3 34/27/3 8/29/3
f 3/11/24 7/48/24 12/50/24
f 38/69/25 7/90/25 3/70/25
f 40/58/28 41/60/28 20/79/28
f 43/47/3 44/9/3 36/68/3
f 42/13/3 43/47/3 35/64/3
f 15/81/29 9/36/29 10/38/29
f 16/67/5 10/14/5 42/13/5
f 15/6/30 5/5/30 1/43/30
f 44/9/3 39/8/3 34/27/3
f 45/82/31 46/84/31 48/59/31
f 37/62/32 45/82/32 47/83/32
f 38/69/33 41/71/33 48/59/33
f 38/56/34 46/84/34 45/82/34
